<svg width="183" height="209" viewBox="0 0 183 209" fill="none" xmlns="http://www.w3.org/2000/svg">
<path d="M34.5 223C67.3609 223 94 196.361 94 163.5C94 130.639 67.3609 104 34.5 104C1.63906 104 -25 130.639 -25 163.5C-25 196.361 1.63906 223 34.5 223Z" fill="#6204BF"/>
<circle cx="154.5" cy="42.5" r="28.5" fill="#6204BF"/>
<path d="M183 127C183 151.301 163.077 171 138.5 171C113.923 171 94 151.301 94 127C94 102.699 113.923 83 138.5 83C163.077 83 183 102.699 183 127Z" fill="#6204BF"/>
<ellipse cx="129.5" cy="-1" rx="15.5" ry="15" fill="#6204BF"/>
</svg>
