<svg width="372" height="129" viewBox="0 0 372 129" fill="none" xmlns="http://www.w3.org/2000/svg">
<path d="M374 14.5C374 55.0929 340.645 88 299.5 88C258.355 88 225 55.0929 225 14.5C225 -26.0929 258.355 -59 299.5 -59C340.645 -59 374 -26.0929 374 14.5Z" fill="#6204BF"/>
<path d="M225 79C225 106.614 202.614 129 175 129C147.386 129 125 106.614 125 79C125 51.3858 147.386 29 175 29C202.614 29 225 51.3858 225 79Z" fill="#6204BF"/>
<circle cx="28.5" cy="50.5" r="28.5" fill="#6204BF"/>
<path d="M162.5 -9.21678C162.5 18.3975 140.114 40.7832 112.5 40.7832C84.8858 40.7832 62.5 18.3975 62.5 -9.21678C62.5 -36.831 84.8858 -59.2168 112.5 -59.2168C140.114 -59.2168 162.5 -36.831 162.5 -9.21678Z" fill="#6204BF"/>
</svg>
